<mxfile host="Electron" agent="Mozilla/5.0 (Windows NT 10.0; Win64; x64) AppleWebKit/537.36 (KHTML, like Gecko) draw.io/26.2.2 Chrome/134.0.6998.178 Electron/35.1.2 Safari/537.36" version="26.2.2">
  <diagram name="PÃ¡gina-1" id="2Md6D8ZqRf__J2bzjT2j">
    <mxGraphModel dx="1270" dy="1780" grid="1" gridSize="10" guides="1" tooltips="1" connect="1" arrows="1" fold="1" page="1" pageScale="1" pageWidth="827" pageHeight="1169" math="0" shadow="0">
      <root>
        <mxCell id="0" />
        <mxCell id="1" parent="0" />
        <mxCell id="6MQ_cg_cFbr9A9Wcl-6M-2" value="Jugador" style="shape=umlActor;verticalLabelPosition=bottom;verticalAlign=top;html=1;outlineConnect=0;" parent="1" vertex="1">
          <mxGeometry x="50" y="820" width="30" height="60" as="geometry" />
        </mxCell>
        <mxCell id="6MQ_cg_cFbr9A9Wcl-6M-3" value="Manager" style="shape=umlActor;verticalLabelPosition=bottom;verticalAlign=top;html=1;outlineConnect=0;" parent="1" vertex="1">
          <mxGeometry x="50" y="640" width="30" height="60" as="geometry" />
        </mxCell>
        <mxCell id="6MQ_cg_cFbr9A9Wcl-6M-4" value="Administrador" style="shape=umlActor;verticalLabelPosition=bottom;verticalAlign=top;html=1;outlineConnect=0;" parent="1" vertex="1">
          <mxGeometry x="50" y="-70" width="30" height="60" as="geometry" />
        </mxCell>
        <mxCell id="6MQ_cg_cFbr9A9Wcl-6M-5" value="Arbitro" style="shape=umlActor;verticalLabelPosition=bottom;verticalAlign=top;html=1;outlineConnect=0;" parent="1" vertex="1">
          <mxGeometry x="1040" y="70" width="30" height="60" as="geometry" />
        </mxCell>
        <mxCell id="6MQ_cg_cFbr9A9Wcl-6M-6" value="Espectador" style="shape=umlActor;verticalLabelPosition=bottom;verticalAlign=top;html=1;outlineConnect=0;" parent="1" vertex="1">
          <mxGeometry x="1040" y="510" width="30" height="60" as="geometry" />
        </mxCell>
        <mxCell id="6MQ_cg_cFbr9A9Wcl-6M-11" value="Propietario Equipo" style="shape=umlActor;verticalLabelPosition=bottom;verticalAlign=top;html=1;outlineConnect=0;" parent="1" vertex="1">
          <mxGeometry x="50" y="360" width="30" height="60" as="geometry" />
        </mxCell>
        <mxCell id="6MQ_cg_cFbr9A9Wcl-6M-13" value="Registrar Equipo" style="ellipse;whiteSpace=wrap;html=1;" parent="1" vertex="1">
          <mxGeometry x="150" y="100" width="80" height="60" as="geometry" />
        </mxCell>
        <mxCell id="6MQ_cg_cFbr9A9Wcl-6M-14" value="Reclutar Jugadores" style="ellipse;whiteSpace=wrap;html=1;aspect=fixed;" parent="1" vertex="1">
          <mxGeometry x="160" y="280" width="70" height="70" as="geometry" />
        </mxCell>
        <mxCell id="6MQ_cg_cFbr9A9Wcl-6M-15" value="Organizar entrenamientos" style="ellipse;whiteSpace=wrap;html=1;aspect=fixed;" parent="1" vertex="1">
          <mxGeometry x="334" y="290" width="80" height="80" as="geometry" />
        </mxCell>
        <mxCell id="6MQ_cg_cFbr9A9Wcl-6M-16" value="Buscar equipo" style="ellipse;whiteSpace=wrap;html=1;" parent="1" vertex="1">
          <mxGeometry x="122.5" y="640" width="77.5" height="50" as="geometry" />
        </mxCell>
        <mxCell id="6MQ_cg_cFbr9A9Wcl-6M-17" value="Extends" style="endArrow=open;endSize=12;dashed=1;html=1;rounded=0;exitX=0.5;exitY=1;exitDx=0;exitDy=0;entryX=0.5;entryY=0;entryDx=0;entryDy=0;" parent="1" source="6MQ_cg_cFbr9A9Wcl-6M-14" target="6MQ_cg_cFbr9A9Wcl-6M-16" edge="1">
          <mxGeometry width="160" relative="1" as="geometry">
            <mxPoint x="160" y="260" as="sourcePoint" />
            <mxPoint x="185" y="430" as="targetPoint" />
          </mxGeometry>
        </mxCell>
        <mxCell id="6MQ_cg_cFbr9A9Wcl-6M-18" value="" style="endArrow=none;html=1;rounded=0;entryX=0;entryY=0.5;entryDx=0;entryDy=0;exitX=1;exitY=0.3333333333333333;exitDx=0;exitDy=0;exitPerimeter=0;" parent="1" source="6MQ_cg_cFbr9A9Wcl-6M-11" target="6MQ_cg_cFbr9A9Wcl-6M-13" edge="1">
          <mxGeometry width="50" height="50" relative="1" as="geometry">
            <mxPoint x="30" y="235.199951171875" as="sourcePoint" />
            <mxPoint x="270" y="140" as="targetPoint" />
          </mxGeometry>
        </mxCell>
        <mxCell id="6MQ_cg_cFbr9A9Wcl-6M-19" value="" style="endArrow=none;html=1;rounded=0;entryX=0;entryY=0.5;entryDx=0;entryDy=0;exitX=1;exitY=0.3333333333333333;exitDx=0;exitDy=0;exitPerimeter=0;" parent="1" source="6MQ_cg_cFbr9A9Wcl-6M-11" target="6MQ_cg_cFbr9A9Wcl-6M-15" edge="1">
          <mxGeometry width="50" height="50" relative="1" as="geometry">
            <mxPoint x="220" y="190" as="sourcePoint" />
            <mxPoint x="270" y="140" as="targetPoint" />
          </mxGeometry>
        </mxCell>
        <mxCell id="6MQ_cg_cFbr9A9Wcl-6M-20" value="" style="endArrow=none;html=1;rounded=0;entryX=0;entryY=0.5;entryDx=0;entryDy=0;exitX=1;exitY=0.3333333333333333;exitDx=0;exitDy=0;exitPerimeter=0;" parent="1" source="6MQ_cg_cFbr9A9Wcl-6M-11" target="6MQ_cg_cFbr9A9Wcl-6M-14" edge="1">
          <mxGeometry width="50" height="50" relative="1" as="geometry">
            <mxPoint x="90" y="380" as="sourcePoint" />
            <mxPoint x="270" y="140" as="targetPoint" />
          </mxGeometry>
        </mxCell>
        <mxCell id="6MQ_cg_cFbr9A9Wcl-6M-21" value="Entrenador" style="shape=umlActor;verticalLabelPosition=bottom;verticalAlign=top;html=1;outlineConnect=0;" parent="1" vertex="1">
          <mxGeometry x="40" y="510" width="30" height="60" as="geometry" />
        </mxCell>
        <mxCell id="6MQ_cg_cFbr9A9Wcl-6M-22" value="" style="endArrow=none;html=1;rounded=0;exitX=1;exitY=0.3333333333333333;exitDx=0;exitDy=0;exitPerimeter=0;" parent="1" source="6MQ_cg_cFbr9A9Wcl-6M-21" target="6MQ_cg_cFbr9A9Wcl-6M-23" edge="1">
          <mxGeometry width="50" height="50" relative="1" as="geometry">
            <mxPoint x="230" y="260" as="sourcePoint" />
            <mxPoint x="230" y="300" as="targetPoint" />
          </mxGeometry>
        </mxCell>
        <mxCell id="6MQ_cg_cFbr9A9Wcl-6M-23" value="Entrenar jugadores" style="ellipse;whiteSpace=wrap;html=1;aspect=fixed;" parent="1" vertex="1">
          <mxGeometry x="280" y="490" width="80" height="80" as="geometry" />
        </mxCell>
        <mxCell id="6MQ_cg_cFbr9A9Wcl-6M-24" value="Include" style="endArrow=open;endSize=12;dashed=1;html=1;rounded=0;exitX=0.5;exitY=1;exitDx=0;exitDy=0;entryX=0.5;entryY=0;entryDx=0;entryDy=0;" parent="1" source="6MQ_cg_cFbr9A9Wcl-6M-15" target="6MQ_cg_cFbr9A9Wcl-6M-23" edge="1">
          <mxGeometry width="160" relative="1" as="geometry">
            <mxPoint x="320" y="-160" as="sourcePoint" />
            <mxPoint x="320" y="240" as="targetPoint" />
          </mxGeometry>
        </mxCell>
        <mxCell id="6MQ_cg_cFbr9A9Wcl-6M-26" value="Entenar" style="ellipse;whiteSpace=wrap;html=1;" parent="1" vertex="1">
          <mxGeometry x="270" y="790" width="90" height="80" as="geometry" />
        </mxCell>
        <mxCell id="6MQ_cg_cFbr9A9Wcl-6M-27" value="" style="endArrow=none;html=1;rounded=0;exitX=1;exitY=0.3333333333333333;exitDx=0;exitDy=0;exitPerimeter=0;entryX=0.033;entryY=0.653;entryDx=0;entryDy=0;entryPerimeter=0;" parent="1" source="6MQ_cg_cFbr9A9Wcl-6M-2" target="6MQ_cg_cFbr9A9Wcl-6M-26" edge="1">
          <mxGeometry width="50" height="50" relative="1" as="geometry">
            <mxPoint x="290" y="640" as="sourcePoint" />
            <mxPoint x="340" y="590" as="targetPoint" />
          </mxGeometry>
        </mxCell>
        <mxCell id="6MQ_cg_cFbr9A9Wcl-6M-28" value="Include" style="endArrow=open;endSize=12;dashed=1;html=1;rounded=0;exitX=0.5;exitY=0;exitDx=0;exitDy=0;entryX=0.5;entryY=1;entryDx=0;entryDy=0;" parent="1" source="6MQ_cg_cFbr9A9Wcl-6M-26" target="6MQ_cg_cFbr9A9Wcl-6M-23" edge="1">
          <mxGeometry width="160" relative="1" as="geometry">
            <mxPoint x="330" y="360" as="sourcePoint" />
            <mxPoint x="330" y="650" as="targetPoint" />
            <Array as="points" />
          </mxGeometry>
        </mxCell>
        <mxCell id="6MQ_cg_cFbr9A9Wcl-6M-29" value="" style="endArrow=none;html=1;rounded=0;exitX=1;exitY=0.3333333333333333;exitDx=0;exitDy=0;exitPerimeter=0;entryX=0.064;entryY=0.377;entryDx=0;entryDy=0;entryPerimeter=0;" parent="1" source="6MQ_cg_cFbr9A9Wcl-6M-3" target="6MQ_cg_cFbr9A9Wcl-6M-16" edge="1">
          <mxGeometry width="50" height="50" relative="1" as="geometry">
            <mxPoint x="220" y="360" as="sourcePoint" />
            <mxPoint x="270" y="310" as="targetPoint" />
          </mxGeometry>
        </mxCell>
        <mxCell id="6MQ_cg_cFbr9A9Wcl-6M-30" value="Consultar Clasificaciones" style="ellipse;whiteSpace=wrap;html=1;" parent="1" vertex="1">
          <mxGeometry x="990" y="1010" width="120" height="80" as="geometry" />
        </mxCell>
        <mxCell id="6MQ_cg_cFbr9A9Wcl-6M-31" value="Consultar Resultados" style="ellipse;whiteSpace=wrap;html=1;" parent="1" vertex="1">
          <mxGeometry x="800" y="1010" width="120" height="80" as="geometry" />
        </mxCell>
        <mxCell id="6MQ_cg_cFbr9A9Wcl-6M-32" value="Consultar equipos" style="ellipse;whiteSpace=wrap;html=1;" parent="1" vertex="1">
          <mxGeometry x="620" y="1010" width="120" height="80" as="geometry" />
        </mxCell>
        <mxCell id="6MQ_cg_cFbr9A9Wcl-6M-33" value="Consultar jugadores" style="ellipse;whiteSpace=wrap;html=1;" parent="1" vertex="1">
          <mxGeometry x="440" y="1010" width="120" height="80" as="geometry" />
        </mxCell>
        <mxCell id="6MQ_cg_cFbr9A9Wcl-6M-46" value="Consultar" style="ellipse;whiteSpace=wrap;html=1;aspect=fixed;" parent="1" vertex="1">
          <mxGeometry x="610" y="350" width="80" height="80" as="geometry" />
        </mxCell>
        <mxCell id="6MQ_cg_cFbr9A9Wcl-6M-49" value="Include" style="endArrow=open;endSize=12;dashed=1;html=1;rounded=0;exitX=0.5;exitY=0;exitDx=0;exitDy=0;" parent="1" source="6MQ_cg_cFbr9A9Wcl-6M-32" edge="1">
          <mxGeometry x="0.0007" width="160" relative="1" as="geometry">
            <mxPoint x="569.2" y="60" as="sourcePoint" />
            <mxPoint x="650" y="430" as="targetPoint" />
            <mxPoint as="offset" />
          </mxGeometry>
        </mxCell>
        <mxCell id="6MQ_cg_cFbr9A9Wcl-6M-50" value="Include" style="endArrow=open;endSize=12;dashed=1;html=1;rounded=0;exitX=0.5;exitY=0;exitDx=0;exitDy=0;entryX=0.5;entryY=1;entryDx=0;entryDy=0;" parent="1" source="6MQ_cg_cFbr9A9Wcl-6M-33" target="6MQ_cg_cFbr9A9Wcl-6M-46" edge="1">
          <mxGeometry x="0.0007" width="160" relative="1" as="geometry">
            <mxPoint x="570" y="190" as="sourcePoint" />
            <mxPoint x="440.8" y="420" as="targetPoint" />
            <mxPoint as="offset" />
          </mxGeometry>
        </mxCell>
        <mxCell id="6MQ_cg_cFbr9A9Wcl-6M-51" value="Include" style="endArrow=open;endSize=12;dashed=1;html=1;rounded=0;exitX=0.5;exitY=0;exitDx=0;exitDy=0;entryX=0.5;entryY=1;entryDx=0;entryDy=0;" parent="1" source="6MQ_cg_cFbr9A9Wcl-6M-31" target="6MQ_cg_cFbr9A9Wcl-6M-46" edge="1">
          <mxGeometry x="0.0007" width="160" relative="1" as="geometry">
            <mxPoint x="690" y="1020" as="sourcePoint" />
            <mxPoint x="660" y="440" as="targetPoint" />
            <mxPoint as="offset" />
          </mxGeometry>
        </mxCell>
        <mxCell id="6MQ_cg_cFbr9A9Wcl-6M-52" value="Include" style="endArrow=open;endSize=12;dashed=1;html=1;rounded=0;exitX=0.5;exitY=0;exitDx=0;exitDy=0;entryX=0.5;entryY=1;entryDx=0;entryDy=0;" parent="1" source="6MQ_cg_cFbr9A9Wcl-6M-30" target="6MQ_cg_cFbr9A9Wcl-6M-46" edge="1">
          <mxGeometry x="0.0007" width="160" relative="1" as="geometry">
            <mxPoint x="980" y="960" as="sourcePoint" />
            <mxPoint x="660" y="440" as="targetPoint" />
            <mxPoint as="offset" />
          </mxGeometry>
        </mxCell>
        <mxCell id="6MQ_cg_cFbr9A9Wcl-6M-53" value="" style="endArrow=none;html=1;rounded=0;exitX=0;exitY=0.5;exitDx=0;exitDy=0;" parent="1" source="6MQ_cg_cFbr9A9Wcl-6M-46" edge="1">
          <mxGeometry width="50" height="50" relative="1" as="geometry">
            <mxPoint x="400" y="390" as="sourcePoint" />
            <mxPoint x="80" y="380" as="targetPoint" />
          </mxGeometry>
        </mxCell>
        <mxCell id="6MQ_cg_cFbr9A9Wcl-6M-54" value="" style="endArrow=none;html=1;rounded=0;exitX=1;exitY=0.3333333333333333;exitDx=0;exitDy=0;exitPerimeter=0;entryX=0;entryY=0.5;entryDx=0;entryDy=0;" parent="1" source="6MQ_cg_cFbr9A9Wcl-6M-21" target="6MQ_cg_cFbr9A9Wcl-6M-46" edge="1">
          <mxGeometry width="50" height="50" relative="1" as="geometry">
            <mxPoint x="400" y="390" as="sourcePoint" />
            <mxPoint x="450" y="340" as="targetPoint" />
          </mxGeometry>
        </mxCell>
        <mxCell id="6MQ_cg_cFbr9A9Wcl-6M-55" value="" style="endArrow=none;html=1;rounded=0;exitX=1;exitY=0.3333333333333333;exitDx=0;exitDy=0;exitPerimeter=0;entryX=0;entryY=0.5;entryDx=0;entryDy=0;" parent="1" source="6MQ_cg_cFbr9A9Wcl-6M-2" target="6MQ_cg_cFbr9A9Wcl-6M-46" edge="1">
          <mxGeometry width="50" height="50" relative="1" as="geometry">
            <mxPoint x="400" y="390" as="sourcePoint" />
            <mxPoint x="450" y="340" as="targetPoint" />
          </mxGeometry>
        </mxCell>
        <mxCell id="6MQ_cg_cFbr9A9Wcl-6M-56" value="" style="endArrow=none;html=1;rounded=0;exitX=1;exitY=0.5;exitDx=0;exitDy=0;entryX=0;entryY=0.3333333333333333;entryDx=0;entryDy=0;entryPerimeter=0;" parent="1" source="6MQ_cg_cFbr9A9Wcl-6M-46" target="6MQ_cg_cFbr9A9Wcl-6M-6" edge="1">
          <mxGeometry width="50" height="50" relative="1" as="geometry">
            <mxPoint x="730" y="150" as="sourcePoint" />
            <mxPoint x="1030" y="520" as="targetPoint" />
          </mxGeometry>
        </mxCell>
        <mxCell id="6MQ_cg_cFbr9A9Wcl-6M-57" value="" style="endArrow=none;html=1;rounded=0;entryX=0;entryY=0.3333333333333333;entryDx=0;entryDy=0;entryPerimeter=0;exitX=1;exitY=0.5;exitDx=0;exitDy=0;" parent="1" source="6MQ_cg_cFbr9A9Wcl-6M-46" target="6MQ_cg_cFbr9A9Wcl-6M-5" edge="1">
          <mxGeometry width="50" height="50" relative="1" as="geometry">
            <mxPoint x="730" y="150" as="sourcePoint" />
            <mxPoint x="780" y="100" as="targetPoint" />
          </mxGeometry>
        </mxCell>
        <mxCell id="6MQ_cg_cFbr9A9Wcl-6M-63" value="Crear torneo" style="ellipse;whiteSpace=wrap;html=1;aspect=fixed;" parent="1" vertex="1">
          <mxGeometry x="165" y="-110" width="50" height="50" as="geometry" />
        </mxCell>
        <mxCell id="6MQ_cg_cFbr9A9Wcl-6M-66" value="Inscribir a tornneo" style="ellipse;whiteSpace=wrap;html=1;" parent="1" vertex="1">
          <mxGeometry x="360" y="180" width="70" height="70" as="geometry" />
        </mxCell>
        <mxCell id="6MQ_cg_cFbr9A9Wcl-6M-67" value="" style="endArrow=none;html=1;rounded=0;exitX=1;exitY=0.3333333333333333;exitDx=0;exitDy=0;exitPerimeter=0;entryX=-0.003;entryY=0.669;entryDx=0;entryDy=0;entryPerimeter=0;" parent="1" source="6MQ_cg_cFbr9A9Wcl-6M-11" target="6MQ_cg_cFbr9A9Wcl-6M-80" edge="1">
          <mxGeometry width="50" height="50" relative="1" as="geometry">
            <mxPoint x="190" y="350" as="sourcePoint" />
            <mxPoint x="170" y="220" as="targetPoint" />
          </mxGeometry>
        </mxCell>
        <mxCell id="6MQ_cg_cFbr9A9Wcl-6M-68" value="Validar jugador y equipo" style="ellipse;whiteSpace=wrap;html=1;" parent="1" vertex="1">
          <mxGeometry x="300" y="-130" width="70" height="50" as="geometry" />
        </mxCell>
        <mxCell id="6MQ_cg_cFbr9A9Wcl-6M-69" value="Include" style="endArrow=open;endSize=12;dashed=1;html=1;rounded=0;exitX=0.5;exitY=0;exitDx=0;exitDy=0;entryX=0.5;entryY=1;entryDx=0;entryDy=0;" parent="1" source="6MQ_cg_cFbr9A9Wcl-6M-66" target="6MQ_cg_cFbr9A9Wcl-6M-68" edge="1">
          <mxGeometry width="160" relative="1" as="geometry">
            <mxPoint x="334" y="30" as="sourcePoint" />
            <mxPoint x="280" y="150" as="targetPoint" />
          </mxGeometry>
        </mxCell>
        <mxCell id="6MQ_cg_cFbr9A9Wcl-6M-70" value="" style="endArrow=none;html=1;rounded=0;entryX=0;entryY=0.5;entryDx=0;entryDy=0;exitX=1;exitY=0.5;exitDx=0;exitDy=0;" parent="1" source="6MQ_cg_cFbr9A9Wcl-6M-63" target="6MQ_cg_cFbr9A9Wcl-6M-68" edge="1">
          <mxGeometry width="50" height="50" relative="1" as="geometry">
            <mxPoint x="250" y="80" as="sourcePoint" />
            <mxPoint x="300" y="30" as="targetPoint" />
          </mxGeometry>
        </mxCell>
        <mxCell id="6MQ_cg_cFbr9A9Wcl-6M-71" value="" style="endArrow=none;html=1;rounded=0;entryX=1;entryY=0.3333333333333333;entryDx=0;entryDy=0;entryPerimeter=0;exitX=0;exitY=0.5;exitDx=0;exitDy=0;" parent="1" source="6MQ_cg_cFbr9A9Wcl-6M-63" target="6MQ_cg_cFbr9A9Wcl-6M-4" edge="1">
          <mxGeometry width="50" height="50" relative="1" as="geometry">
            <mxPoint x="230" y="20" as="sourcePoint" />
            <mxPoint x="280" y="-30" as="targetPoint" />
          </mxGeometry>
        </mxCell>
        <mxCell id="6MQ_cg_cFbr9A9Wcl-6M-72" value="Registran resultados" style="ellipse;whiteSpace=wrap;html=1;aspect=fixed;" parent="1" vertex="1">
          <mxGeometry x="720" y="-100" width="70" height="70" as="geometry" />
        </mxCell>
        <mxCell id="6MQ_cg_cFbr9A9Wcl-6M-73" value="" style="endArrow=none;html=1;rounded=0;exitX=1;exitY=0.3333333333333333;exitDx=0;exitDy=0;exitPerimeter=0;" parent="1" source="6MQ_cg_cFbr9A9Wcl-6M-4" target="6MQ_cg_cFbr9A9Wcl-6M-74" edge="1">
          <mxGeometry width="50" height="50" relative="1" as="geometry">
            <mxPoint x="120" y="-60" as="sourcePoint" />
            <mxPoint x="170" y="-110" as="targetPoint" />
          </mxGeometry>
        </mxCell>
        <mxCell id="6MQ_cg_cFbr9A9Wcl-6M-74" value="Actualizar clasificacion" style="ellipse;whiteSpace=wrap;html=1;aspect=fixed;" parent="1" vertex="1">
          <mxGeometry x="140" y="-260" width="70" height="70" as="geometry" />
        </mxCell>
        <mxCell id="6MQ_cg_cFbr9A9Wcl-6M-75" value="" style="endArrow=none;html=1;rounded=0;entryX=0;entryY=0.3333333333333333;entryDx=0;entryDy=0;entryPerimeter=0;exitX=1;exitY=0.5;exitDx=0;exitDy=0;" parent="1" source="6MQ_cg_cFbr9A9Wcl-6M-72" target="6MQ_cg_cFbr9A9Wcl-6M-5" edge="1">
          <mxGeometry width="50" height="50" relative="1" as="geometry">
            <mxPoint x="710" y="-150" as="sourcePoint" />
            <mxPoint x="760" y="-200" as="targetPoint" />
          </mxGeometry>
        </mxCell>
        <mxCell id="6MQ_cg_cFbr9A9Wcl-6M-76" value="Generar emparejamiento&lt;div&gt;equipos&lt;/div&gt;" style="ellipse;whiteSpace=wrap;html=1;aspect=fixed;" parent="1" vertex="1">
          <mxGeometry x="400" y="-130" width="90" height="90" as="geometry" />
        </mxCell>
        <mxCell id="6MQ_cg_cFbr9A9Wcl-6M-77" value="" style="endArrow=none;html=1;rounded=0;entryX=0;entryY=0.5;entryDx=0;entryDy=0;exitX=1;exitY=0.5;exitDx=0;exitDy=0;" parent="1" source="6MQ_cg_cFbr9A9Wcl-6M-68" target="6MQ_cg_cFbr9A9Wcl-6M-76" edge="1">
          <mxGeometry width="50" height="50" relative="1" as="geometry">
            <mxPoint x="390" y="170" as="sourcePoint" />
            <mxPoint x="440" y="120" as="targetPoint" />
          </mxGeometry>
        </mxCell>
        <mxCell id="6MQ_cg_cFbr9A9Wcl-6M-79" value="Actualizar tabla resultados" style="ellipse;whiteSpace=wrap;html=1;aspect=fixed;" parent="1" vertex="1">
          <mxGeometry x="334" y="-240" width="80" height="80" as="geometry" />
        </mxCell>
        <mxCell id="6MQ_cg_cFbr9A9Wcl-6M-80" value="Comprobar requisitos jugador" style="ellipse;whiteSpace=wrap;html=1;aspect=fixed;" parent="1" vertex="1">
          <mxGeometry x="236.25" y="180" width="60" height="60" as="geometry" />
        </mxCell>
        <mxCell id="6MQ_cg_cFbr9A9Wcl-6M-81" value="" style="endArrow=none;html=1;rounded=0;entryX=0;entryY=0.5;entryDx=0;entryDy=0;exitX=1;exitY=0.5;exitDx=0;exitDy=0;" parent="1" source="6MQ_cg_cFbr9A9Wcl-6M-80" target="6MQ_cg_cFbr9A9Wcl-6M-66" edge="1">
          <mxGeometry width="50" height="50" relative="1" as="geometry">
            <mxPoint x="370" y="370" as="sourcePoint" />
            <mxPoint x="420" y="320" as="targetPoint" />
          </mxGeometry>
        </mxCell>
        <mxCell id="6MQ_cg_cFbr9A9Wcl-6M-84" value="" style="endArrow=none;html=1;rounded=0;exitX=1;exitY=0.3333333333333333;exitDx=0;exitDy=0;exitPerimeter=0;" parent="1" source="6MQ_cg_cFbr9A9Wcl-6M-3" target="6MQ_cg_cFbr9A9Wcl-6M-85" edge="1">
          <mxGeometry width="50" height="50" relative="1" as="geometry">
            <mxPoint x="370" y="630" as="sourcePoint" />
            <mxPoint x="130" y="600" as="targetPoint" />
          </mxGeometry>
        </mxCell>
        <mxCell id="6MQ_cg_cFbr9A9Wcl-6M-85" value="Actualizar documentacion jugador" style="ellipse;whiteSpace=wrap;html=1;aspect=fixed;" parent="1" vertex="1">
          <mxGeometry x="210" y="580" width="70" height="70" as="geometry" />
        </mxCell>
        <mxCell id="6MQ_cg_cFbr9A9Wcl-6M-86" value="Include" style="endArrow=open;endSize=12;dashed=1;html=1;rounded=0;exitX=0.5;exitY=0;exitDx=0;exitDy=0;entryX=0.5;entryY=1;entryDx=0;entryDy=0;" parent="1" source="6MQ_cg_cFbr9A9Wcl-6M-85" target="6MQ_cg_cFbr9A9Wcl-6M-80" edge="1">
          <mxGeometry width="160" relative="1" as="geometry">
            <mxPoint x="384" y="380" as="sourcePoint" />
            <mxPoint x="330" y="500" as="targetPoint" />
          </mxGeometry>
        </mxCell>
        <mxCell id="6MQ_cg_cFbr9A9Wcl-6M-87" value="Include" style="endArrow=open;endSize=12;dashed=1;html=1;rounded=0;exitX=0;exitY=0.5;exitDx=0;exitDy=0;entryX=1;entryY=0.5;entryDx=0;entryDy=0;" parent="1" source="6MQ_cg_cFbr9A9Wcl-6M-79" target="6MQ_cg_cFbr9A9Wcl-6M-74" edge="1">
          <mxGeometry width="160" relative="1" as="geometry">
            <mxPoint x="526" y="-80" as="sourcePoint" />
            <mxPoint x="220" y="-135" as="targetPoint" />
          </mxGeometry>
        </mxCell>
        <mxCell id="6MQ_cg_cFbr9A9Wcl-6M-88" value="Include" style="endArrow=open;endSize=12;dashed=1;html=1;rounded=0;exitX=0;exitY=0.5;exitDx=0;exitDy=0;entryX=1;entryY=0.5;entryDx=0;entryDy=0;" parent="1" target="6MQ_cg_cFbr9A9Wcl-6M-79" edge="1">
          <mxGeometry width="160" relative="1" as="geometry">
            <mxPoint x="730" y="-55" as="sourcePoint" />
            <mxPoint x="424" y="-110" as="targetPoint" />
          </mxGeometry>
        </mxCell>
        <mxCell id="6MQ_cg_cFbr9A9Wcl-6M-89" value="Mediop de retrasmision" style="shape=umlActor;verticalLabelPosition=bottom;verticalAlign=top;html=1;outlineConnect=0;" parent="1" vertex="1">
          <mxGeometry x="1050" y="270" width="30" height="60" as="geometry" />
        </mxCell>
        <mxCell id="6MQ_cg_cFbr9A9Wcl-6M-90" value="Solicitar pernmiso de retrasmision" style="ellipse;whiteSpace=wrap;html=1;aspect=fixed;" parent="1" vertex="1">
          <mxGeometry x="790" y="90" width="80" height="80" as="geometry" />
        </mxCell>
        <mxCell id="6MQ_cg_cFbr9A9Wcl-6M-91" value="" style="endArrow=none;html=1;rounded=0;exitX=1;exitY=0.3333333333333333;exitDx=0;exitDy=0;exitPerimeter=0;" parent="1" source="6MQ_cg_cFbr9A9Wcl-6M-4" target="6MQ_cg_cFbr9A9Wcl-6M-92" edge="1">
          <mxGeometry width="50" height="50" relative="1" as="geometry">
            <mxPoint x="80" y="-60" as="sourcePoint" />
            <mxPoint x="160" y="-20" as="targetPoint" />
          </mxGeometry>
        </mxCell>
        <mxCell id="6MQ_cg_cFbr9A9Wcl-6M-92" value="Gestionar derechos trasmision" style="ellipse;whiteSpace=wrap;html=1;aspect=fixed;" parent="1" vertex="1">
          <mxGeometry x="170" y="-50" width="80" height="80" as="geometry" />
        </mxCell>
        <mxCell id="6MQ_cg_cFbr9A9Wcl-6M-93" value="Include" style="endArrow=open;endSize=12;dashed=1;html=1;rounded=0;exitX=0;exitY=0.5;exitDx=0;exitDy=0;entryX=1;entryY=0.5;entryDx=0;entryDy=0;" parent="1" source="6MQ_cg_cFbr9A9Wcl-6M-90" target="6MQ_cg_cFbr9A9Wcl-6M-92" edge="1">
          <mxGeometry width="160" relative="1" as="geometry">
            <mxPoint x="666" y="145" as="sourcePoint" />
            <mxPoint x="350" as="targetPoint" />
          </mxGeometry>
        </mxCell>
        <mxCell id="6MQ_cg_cFbr9A9Wcl-6M-94" value="" style="endArrow=none;html=1;rounded=0;entryX=1;entryY=0.5;entryDx=0;entryDy=0;exitX=0;exitY=0.3333333333333333;exitDx=0;exitDy=0;exitPerimeter=0;" parent="1" source="6MQ_cg_cFbr9A9Wcl-6M-89" target="6MQ_cg_cFbr9A9Wcl-6M-90" edge="1">
          <mxGeometry width="50" height="50" relative="1" as="geometry">
            <mxPoint x="840" y="280" as="sourcePoint" />
            <mxPoint x="890" y="230" as="targetPoint" />
          </mxGeometry>
        </mxCell>
        <mxCell id="6MQ_cg_cFbr9A9Wcl-6M-95" value="Retrasmision" style="ellipse;whiteSpace=wrap;html=1;aspect=fixed;" parent="1" vertex="1">
          <mxGeometry x="700" y="180" width="80" height="80" as="geometry" />
        </mxCell>
        <mxCell id="6MQ_cg_cFbr9A9Wcl-6M-96" value="" style="endArrow=none;html=1;rounded=0;entryX=0;entryY=0.3333333333333333;entryDx=0;entryDy=0;entryPerimeter=0;exitX=1;exitY=0.5;exitDx=0;exitDy=0;" parent="1" source="6MQ_cg_cFbr9A9Wcl-6M-95" target="6MQ_cg_cFbr9A9Wcl-6M-89" edge="1">
          <mxGeometry width="50" height="50" relative="1" as="geometry">
            <mxPoint x="840" y="280" as="sourcePoint" />
            <mxPoint x="890" y="230" as="targetPoint" />
          </mxGeometry>
        </mxCell>
        <mxCell id="6MQ_cg_cFbr9A9Wcl-6M-97" value="" style="endArrow=none;html=1;rounded=0;entryX=0.5;entryY=1;entryDx=0;entryDy=0;exitX=0;exitY=0.3333333333333333;exitDx=0;exitDy=0;exitPerimeter=0;fillColor=#FFFFFF;" parent="1" source="6MQ_cg_cFbr9A9Wcl-6M-6" target="6MQ_cg_cFbr9A9Wcl-6M-95" edge="1">
          <mxGeometry width="50" height="50" relative="1" as="geometry">
            <mxPoint x="840" y="280" as="sourcePoint" />
            <mxPoint x="890" y="230" as="targetPoint" />
          </mxGeometry>
        </mxCell>
      </root>
    </mxGraphModel>
  </diagram>
</mxfile>
